<?xml version="1.0" encoding="UTF-8" standalone="no"?>
<svg
   xmlns:dc="http://purl.org/dc/elements/1.1/"
   xmlns:cc="http://creativecommons.org/ns#"
   xmlns:rdf="http://www.w3.org/1999/02/22-rdf-syntax-ns#"
   xmlns:svg="http://www.w3.org/2000/svg"
   xmlns="http://www.w3.org/2000/svg"
   xmlns:sodipodi="http://sodipodi.sourceforge.net/DTD/sodipodi-0.dtd"
   xmlns:inkscape="http://www.inkscape.org/namespaces/inkscape"
   id="Calque_1"
   data-name="Calque 1"
   width="117.22002"
   height="117.23006"
   viewBox="0 0 117.22002 117.23006"
   version="1.1"
   sodipodi:docname="logo.svg"
   inkscape:version="0.92.3 (2405546, 2018-03-11)">
  <metadata
     id="metadata111">
    <rdf:RDF>
      <cc:Work
         rdf:about="">
        <dc:format>image/svg+xml</dc:format>
        <dc:type
           rdf:resource="http://purl.org/dc/dcmitype/StillImage" />
      </cc:Work>
    </rdf:RDF>
  </metadata>
  <sodipodi:namedview
     pagecolor="#ffffff"
     bordercolor="#666666"
     borderopacity="1"
     objecttolerance="10"
     gridtolerance="10"
     guidetolerance="10"
     inkscape:pageopacity="0"
     inkscape:pageshadow="2"
     inkscape:window-width="1680"
     inkscape:window-height="1022"
     id="namedview109"
     showgrid="false"
     inkscape:zoom="0.965"
     inkscape:cx="194.58"
     inkscape:cy="58.450004"
     inkscape:window-x="0"
     inkscape:window-y="0"
     inkscape:window-maximized="1"
     inkscape:current-layer="Calque_1" />
  <defs
     id="defs4">
    <style
       id="style2">
      .cls-1 {
        fill: #79c059;
      }

      .cls-2 {
        fill: none;
        stroke: #79c059;
      }

      .cls-2, .cls-3 {
        stroke-miterlimit: 10;
      }

      .cls-3 {
        fill: #fff;
        stroke: #fff;
      }
    </style>
  </defs>
  <g
     id="g70"
     transform="translate(-5.4199962,-16.219939)">
    <g
       id="g12">
      <path
         class="cls-1"
         d="M 64,16.22 A 13.17,13.17 0 1 0 77.2,29.38 13.16,13.16 0 0 0 64,16.22 Z m 0,12.54 A 4.63,4.63 0 1 1 68.63,24.13 4.62,4.62 0 0 1 64,28.76 Z"
         id="path6"
         inkscape:connector-curvature="0"
         style="fill:#79c059" />
      <line
         class="cls-2"
         x1="64.029999"
         y1="40.669998"
         x2="64.029999"
         y2="48.610001"
         id="line8"
         style="fill:none;stroke:#79c059;stroke-miterlimit:10" />
      <path
         class="cls-1"
         d="M 70.09,53 A 6.06,6.06 0 1 1 64,46.94 6.06,6.06 0 0 1 70.09,53 Z"
         id="path10"
         inkscape:connector-curvature="0"
         style="fill:#79c059" />
    </g>
    <g
       id="g20">
      <path
         class="cls-1"
         d="M 64,133.45 A 13.17,13.17 0 1 0 50.84,120.28 13.17,13.17 0 0 0 64,133.45 Z m 0,-12.54 a 4.63,4.63 0 1 1 -4.62,4.62 4.62,4.62 0 0 1 4.62,-4.62 z"
         id="path14"
         inkscape:connector-curvature="0"
         style="fill:#79c059" />
      <line
         class="cls-2"
         x1="64.029999"
         y1="109"
         x2="64.029999"
         y2="101.06"
         id="line16"
         style="fill:none;stroke:#79c059;stroke-miterlimit:10" />
      <path
         class="cls-1"
         d="m 58,96.67 a 6.06,6.06 0 1 1 6,6.06 6.06,6.06 0 0 1 -6,-6.06 z"
         id="path18"
         inkscape:connector-curvature="0"
         style="fill:#79c059" />
    </g>
    <g
       id="g28">
      <path
         class="cls-1"
         d="m 22.59,33.39 a 13.16,13.16 0 1 0 18.61,0 13.15,13.15 0 0 0 -18.61,0 z m 8.86,8.86 a 4.62,4.62 0 1 1 0,-6.54 4.62,4.62 0 0 1 0,6.54 z"
         id="path22"
         inkscape:connector-curvature="0"
         style="fill:#79c059" />
      <line
         class="cls-2"
         x1="39.869999"
         y1="50.669998"
         x2="45.490002"
         y2="56.290001"
         id="line24"
         style="fill:none;stroke:#79c059;stroke-miterlimit:10" />
      <path
         class="cls-1"
         d="m 52.88,55.11 a 6.06,6.06 0 1 1 -8.57,0 6.07,6.07 0 0 1 8.57,0 z"
         id="path26"
         inkscape:connector-curvature="0"
         style="fill:#79c059" />
    </g>
    <g
       id="g36">
      <path
         class="cls-1"
         d="m 105.48,116.28 a 13.17,13.17 0 1 0 -18.62,0 13.17,13.17 0 0 0 18.62,0 z m -8.87,-8.86 a 4.62,4.62 0 1 1 0,6.53 4.63,4.63 0 0 1 0,-6.53 z"
         id="path30"
         inkscape:connector-curvature="0"
         style="fill:#79c059" />
      <line
         class="cls-2"
         x1="88.190002"
         y1="98.989998"
         x2="82.580002"
         y2="93.379997"
         id="line32"
         style="fill:none;stroke:#79c059;stroke-miterlimit:10" />
      <path
         class="cls-1"
         d="m 75.19,94.56 a 6.06,6.06 0 1 1 8.57,0 6.05,6.05 0 0 1 -8.57,0 z"
         id="path34"
         inkscape:connector-curvature="0"
         style="fill:#79c059" />
    </g>
    <g
       id="g44">
      <path
         class="cls-1"
         d="M 5.42,74.83 A 13.17,13.17 0 1 0 18.58,61.67 13.16,13.16 0 0 0 5.42,74.83 Z m 12.54,0 A 4.63,4.63 0 1 1 13.33,70.21 4.64,4.64 0 0 1 18,74.83 Z"
         id="path38"
         inkscape:connector-curvature="0"
         style="fill:#79c059" />
      <line
         class="cls-2"
         x1="29.870001"
         y1="74.830002"
         x2="37.810001"
         y2="74.830002"
         id="line40"
         style="fill:none;stroke:#79c059;stroke-miterlimit:10" />
      <path
         class="cls-1"
         d="m 42.2,68.77 a 6.06,6.06 0 1 1 -6.06,6.06 6.05,6.05 0 0 1 6.06,-6.06 z"
         id="path42"
         inkscape:connector-curvature="0"
         style="fill:#79c059" />
    </g>
    <g
       id="g52">
      <path
         class="cls-1"
         d="M 122.64,74.83 A 13.16,13.16 0 1 0 109.48,88 13.15,13.15 0 0 0 122.64,74.83 Z m -12.53,0 a 4.63,4.63 0 1 1 4.62,4.63 4.62,4.62 0 0 1 -4.62,-4.63 z"
         id="path46"
         inkscape:connector-curvature="0"
         style="fill:#79c059" />
      <line
         class="cls-2"
         x1="98.199997"
         y1="74.830002"
         x2="90.260002"
         y2="74.830002"
         id="line48"
         style="fill:none;stroke:#79c059;stroke-miterlimit:10" />
      <path
         class="cls-1"
         d="m 85.87,80.89 a 6.06,6.06 0 1 1 6.06,-6.06 6.06,6.06 0 0 1 -6.06,6.06 z"
         id="path50"
         inkscape:connector-curvature="0"
         style="fill:#79c059" />
    </g>
    <g
       id="g60">
      <path
         class="cls-1"
         d="m 22.58,116.28 a 13.17,13.17 0 1 0 0,-18.62 13.17,13.17 0 0 0 0,18.62 z m 8.87,-8.87 a 4.62,4.62 0 1 1 -6.54,0 4.65,4.65 0 0 1 6.54,0 z"
         id="path54"
         inkscape:connector-curvature="0"
         style="fill:#79c059" />
      <line
         class="cls-2"
         x1="39.869999"
         y1="98.989998"
         x2="45.490002"
         y2="93.379997"
         id="line56"
         style="fill:none;stroke:#79c059;stroke-miterlimit:10" />
      <path
         class="cls-1"
         d="m 44.31,86 a 6.06,6.06 0 1 1 0,8.57 6.05,6.05 0 0 1 0,-8.57 z"
         id="path58"
         inkscape:connector-curvature="0"
         style="fill:#79c059" />
    </g>
    <g
       id="g68">
      <path
         class="cls-1"
         d="m 105.48,33.39 a 13.17,13.17 0 1 0 0,18.62 13.17,13.17 0 0 0 0,-18.62 z m -8.87,8.86 a 4.62,4.62 0 1 1 6.54,0 4.64,4.64 0 0 1 -6.54,0 z"
         id="path62"
         inkscape:connector-curvature="0"
         style="fill:#79c059" />
      <line
         class="cls-2"
         x1="88.190002"
         y1="50.68"
         x2="82.580002"
         y2="56.290001"
         id="line64"
         style="fill:none;stroke:#79c059;stroke-miterlimit:10" />
      <path
         class="cls-1"
         d="m 83.75,63.68 a 6.06,6.06 0 1 1 0,-8.57 6.05,6.05 0 0 1 0,8.57 z"
         id="path66"
         inkscape:connector-curvature="0"
         style="fill:#79c059" />
    </g>
  </g>
</svg>
